<svg width="24" height="24" viewBox="0 0 24 24" fill="none" xmlns="http://www.w3.org/2000/svg">
<g id="Chart Icon">
<g id="Group 916">
<path id="Subtract" fill-rule="evenodd" clip-rule="evenodd" d="M5.77778 4C4.79594 4 4 4.79595 4 5.77778V18.2222C4 19.204 4.79594 20 5.77778 20H18.2222C19.2041 20 20 19.204 20 18.2222V5.77778C20 4.79595 19.2041 4 18.2222 4H5.77778ZM8.44444 12.8889C8.44444 12.3979 8.04647 12 7.55556 12C7.06464 12 6.66667 12.3979 6.66667 12.8889V16.4444C6.66667 16.9354 7.06464 17.3333 7.55556 17.3333C8.04647 17.3333 8.44444 16.9354 8.44444 16.4444V12.8889ZM12 9.33333C12.4909 9.33333 12.8889 9.73128 12.8889 10.2222V16.4444C12.8889 16.9354 12.4909 17.3333 12 17.3333C11.5091 17.3333 11.1111 16.9354 11.1111 16.4444V10.2222C11.1111 9.73128 11.5091 9.33333 12 9.33333ZM17.3333 7.55556C17.3333 7.06462 16.9354 6.66667 16.4444 6.66667C15.9535 6.66667 15.5556 7.06462 15.5556 7.55556V16.4444C15.5556 16.9354 15.9535 17.3333 16.4444 17.3333C16.9354 17.3333 17.3333 16.9354 17.3333 16.4444V7.55556Z" fill="white"/>
</g>
</g>
</svg>
