<svg width="24" height="24" viewBox="0 0 24 24" fill="none" xmlns="http://www.w3.org/2000/svg">
<g id="Dashboard Icon">
<path id="Union" fill-rule="evenodd" clip-rule="evenodd" d="M5.6 4C4.71634 4 4 4.71634 4 5.6V8.8C4 9.68366 4.71634 10.4 5.6 10.4H8.8C9.68366 10.4 10.4 9.68366 10.4 8.8V5.6C10.4 4.71634 9.68366 4 8.8 4H5.6ZM5.6 13.6C4.71634 13.6 4 14.3163 4 15.2V18.4C4 19.2837 4.71634 20 5.6 20H8.8C9.68366 20 10.4 19.2837 10.4 18.4V15.2C10.4 14.3163 9.68366 13.6 8.8 13.6H5.6ZM13.6 15.2C13.6 14.3163 14.3163 13.6 15.2 13.6H18.4C19.2837 13.6 20 14.3163 20 15.2V18.4C20 19.2837 19.2837 20 18.4 20H15.2C14.3163 20 13.6 19.2837 13.6 18.4V15.2ZM15.2 4C14.3163 4 13.6 4.71634 13.6 5.6V8.8C13.6 9.68366 14.3163 10.4 15.2 10.4H18.4C19.2837 10.4 20 9.68366 20 8.8V5.6C20 4.71634 19.2837 4 18.4 4H15.2Z" fill="white"/>
</g>
</svg>
