<svg width="148" height="120" viewBox="0 0 148 120" fill="none" xmlns="http://www.w3.org/2000/svg">
<path d="M117.943 10.8069H65.1282C64.3057 10.8096 63.4996 10.5794 62.8024 10.1424C62.1057 9.70601 61.5468 9.08039 61.1907 8.33936C59.8772 5.82216 57.8915 3.71936 55.4535 2.26406C53.0161 0.808759 50.2222 0.0584996 47.3832 0.0968596H16.3564C12.1794 0.0968596 8.17303 1.75614 5.21931 4.70972C2.26559 7.66344 0.606445 11.6698 0.606445 15.8469V87.1937L9.84644 41.0469C10.1062 39.6376 10.5295 38.2632 11.1064 36.9519C12.7285 33.1702 15.4224 29.947 18.8557 27.6797C22.2895 25.4124 26.3118 24.2009 30.4264 24.1944H131.646C132.276 24.1944 132.854 24.2469 133.484 24.2994C132.955 20.5549 131.091 17.1276 128.236 14.6486C125.38 12.1696 121.726 10.8052 117.944 10.8069L117.943 10.8069Z" fill="#0099DD"/>
<path d="M143.832 35.2201C140.849 31.5583 136.375 29.4364 131.652 29.4451H30.4321C26.7959 29.4538 23.2741 30.7177 20.4615 33.0228C17.6494 35.3279 15.719 38.5336 14.9971 42.0976L3.18465 101.054C2.25496 105.69 3.45644 110.498 6.45827 114.152C9.46001 117.804 13.9439 119.916 18.6721 119.902H119.839C123.484 119.904 127.017 118.645 129.84 116.338C132.663 114.032 134.601 110.822 135.326 107.249L147.086 48.2926C148.028 43.6671 146.832 38.8639 143.831 35.2201H143.832Z" fill="#0099DD"/>
</svg>
