<svg width="11" height="10" viewBox="0 0 11 10" fill="none" xmlns="http://www.w3.org/2000/svg">
<path d="M9.36363 3.57077C9.29891 3.41973 9.14788 3.32263 8.98606 3.32263H7.109V0.409951C7.109 0.183418 6.92563 0 6.69905 0H3.8511C3.62456 0 3.44115 0.183373 3.44115 0.409951V3.32263H1.34833C1.18652 3.32263 1.03548 3.41973 0.970762 3.57077C0.906043 3.7218 0.938385 3.90517 1.05708 4.02383L4.97301 8.12316C5.04851 8.20947 5.15639 8.25259 5.27509 8.25259C5.39374 8.25259 5.50162 8.19865 5.57716 8.11233L9.30971 4.01301C9.40677 3.89439 9.42833 3.72176 9.36361 3.57076L9.36363 3.57077Z" fill="#0099DD"/>
<path d="M10.1189 10.0004H0.431508C0.194197 10.0004 0 9.76309 0 9.46102C0 9.15894 0.194197 8.92163 0.431508 8.92163H10.1081C10.3454 8.92163 10.5396 9.15894 10.5396 9.46102C10.5396 9.76305 10.3562 10.0004 10.1189 10.0004H10.1189Z" fill="#0099DD"/>
</svg>
