<svg width="24" height="24" viewBox="0 0 24 24" fill="none" xmlns="http://www.w3.org/2000/svg">
<g id="Message Icon">
<g id="Group 902">
<path id="Exclude" fill-rule="evenodd" clip-rule="evenodd" d="M7.2 5C5.43269 5 4 6.567 4 8.5V15.5C4 17.433 5.43269 19 7.2 19H16.8C18.5673 19 20 17.433 20 15.5V8.5C20 6.567 18.5673 5 16.8 5H7.2ZM8.40876 8.62284C8.02897 8.37593 7.53807 8.51251 7.31231 8.92791C7.08656 9.34332 7.21144 9.88024 7.59124 10.1272L10.8036 12.2156C11.5656 12.711 12.5151 12.7067 13.2733 12.2044L16.4145 10.1234C16.7924 9.87306 16.9132 9.33502 16.6843 8.92168C16.4554 8.50834 15.9634 8.37622 15.5855 8.62658L12.4444 10.7076C12.1916 10.875 11.8751 10.8764 11.6211 10.7113L8.40876 8.62284Z" fill="white"/>
</g>
</g>
</svg>
