<svg width="32" height="30" viewBox="0 0 32 30" fill="none" xmlns="http://www.w3.org/2000/svg">
<g id="Notification icon">
<g id="Group 905">
<path id="Union (Stroke)" fill-rule="evenodd" clip-rule="evenodd" d="M24.2127 19.0408C24.1851 18.994 24.151 18.9505 24.1109 18.9115L23.5418 18.3583C23.1371 17.9649 22.8234 17.5156 22.5935 17.0357C22.8099 17.4874 23.1003 17.9119 23.4709 18.2879L24.2127 19.0408ZM7.78694 19.0408L8.52877 18.2879C8.91177 17.8993 9.20919 17.4588 9.42772 16.9901C9.19597 17.4871 8.87541 17.9525 8.4579 18.3583L7.88875 18.9115L7.1497 18.2155L7.71885 17.6622C8.52549 16.8782 8.89348 15.7768 8.8624 14.677C8.77258 11.4984 9.40701 5.07715 15.9998 5.07715C22.5927 5.07715 23.2271 11.4984 23.1373 14.677C23.1062 15.7768 23.4742 16.8782 24.2808 17.6622L24.85 18.2155C25.1596 18.5164 25.3332 18.9218 25.3332 19.3442C25.3332 20.2328 24.5803 20.9531 23.6516 20.9531H8.34809C7.41937 20.9531 6.6665 20.2328 6.6665 19.3442C6.6665 18.9218 6.84005 18.5164 7.1497 18.2155L7.88875 18.9115C7.84868 18.9505 7.81456 18.994 7.78694 19.0408ZM10.0616 17.9764C10.7037 16.9344 10.9674 15.7453 10.9357 14.6233C10.8935 13.1296 11.0393 11.1019 11.8064 9.52059C12.1756 8.7595 12.657 8.16805 13.2701 7.76253C13.8686 7.36664 14.7216 7.06164 15.9998 7.06164C17.2781 7.06164 18.1311 7.36664 18.7296 7.76253C19.3427 8.16804 19.824 8.7595 20.1932 9.52059C20.9603 11.1019 21.1062 13.1296 21.064 14.6233C21.0323 15.7453 21.296 16.9344 21.938 17.9764C22.1537 18.3264 22.4121 18.6599 22.7164 18.9686H9.28331C9.58754 18.6599 9.84594 18.3264 10.0616 17.9764ZM13.9258 23.9299C13.9258 23.3819 14.3901 22.9376 14.9628 22.9376H17.0369C17.6096 22.9376 18.0739 23.3819 18.0739 23.9299C18.0739 24.4779 17.6096 24.9221 17.0369 24.9221H14.9628C14.3901 24.9221 13.9258 24.4779 13.9258 23.9299Z" fill="#626973"/>
</g>
</g>
</svg>
