<svg width="17" height="17" viewBox="0 0 17 17" fill="none" xmlns="http://www.w3.org/2000/svg">
<g id="noun-folder-174938-FFFFFF 1">
<g id="Group">
<path id="Vector" d="M2.16009 5.31234C2.37259 4.67484 3.01009 4.21442 3.71842 4.21442H13.4934C13.6351 4.21442 13.7768 4.10817 13.7768 3.9665V3.329C13.7768 3.01025 13.5288 2.76234 13.1747 2.76234H5.66634C5.34759 2.76234 5.06426 2.51442 5.06426 2.19567V1.98317C5.06426 1.66442 4.81634 1.4165 4.46217 1.4165H0.778841C0.424674 1.4165 0.176758 1.66442 0.176758 1.98317V11.3332C0.176758 11.404 0.283008 11.4394 0.318424 11.3686L2.16009 5.31234Z" fill="white"/>
<path id="Vector_2" d="M13.458 15.5831H0.849635C0.530885 15.5831 0.282968 15.2644 0.389218 14.981L3.25797 5.63102C3.3288 5.41852 3.50589 5.27686 3.71839 5.27686H16.3267C16.6455 5.27686 16.8934 5.59561 16.7871 5.87894L13.9184 15.2289C13.8476 15.4414 13.6705 15.5831 13.458 15.5831Z" fill="white"/>
</g>
</g>
</svg>
