<svg width="19" height="19" viewBox="0 0 19 19" fill="none" xmlns="http://www.w3.org/2000/svg">
<path fill-rule="evenodd" clip-rule="evenodd" d="M12.1602 12.4451H12.4447C12.6548 12.4451 12.7307 12.5865 12.6144 12.761L11.1356 14.9792C11.0192 15.1537 10.8307 15.1536 10.7144 14.9792L9.23557 12.761C9.11917 12.5864 9.19519 12.4451 9.40523 12.4451H9.68974C9.89978 12.4451 10.07 12.2746 10.07 12.0644V8.07585C10.07 7.8642 10.2399 7.69517 10.4495 7.69517H11.4005C11.6098 7.69517 11.78 7.86563 11.78 8.07585V12.0644C11.78 12.2761 11.9502 12.4451 12.1602 12.4451H12.1602ZM6.83974 6.5551H6.55523C6.34518 6.5551 6.26925 6.41365 6.38557 6.23924L7.86438 4.02099C7.98078 3.84646 8.16923 3.84657 8.28557 4.02099L9.76438 6.23924C9.88078 6.41377 9.80476 6.5551 9.59472 6.5551H9.31021C9.10017 6.5551 8.92996 6.72556 8.92996 6.93578V10.9244C8.92996 11.136 8.76007 11.305 8.55045 11.305H7.59947C7.39017 11.305 7.21996 11.1346 7.21996 10.9244V6.93578C7.21996 6.72414 7.04975 6.5551 6.83971 6.5551H6.83974Z" fill="#0099DD"/>
</svg>
