<svg width="16" height="16" viewBox="0 0 16 16" fill="none" xmlns="http://www.w3.org/2000/svg">
<g id="noun-help-1009848-FFFFFF 1" clip-path="url(#clip0_1_9456)">
<path id="Vector" d="M8 0C5.87827 0 3.84347 0.842867 2.34307 2.34307C0.8428 3.84333 0 5.87827 0 8C0 10.1217 0.842867 12.1565 2.34307 13.6569C3.84333 15.1572 5.87827 16 8 16C10.1217 16 12.1565 15.1571 13.6569 13.6569C15.1572 12.1567 16 10.1217 16 8C16 5.87827 15.1571 3.84347 13.6569 2.34307C12.1567 0.8428 10.1217 0 8 0V0ZM7.7424 12C7.46485 11.9979 7.19923 11.8866 7.00313 11.6902C6.80699 11.4938 6.69611 11.228 6.69439 10.9504C6.6835 10.6717 6.78939 10.401 6.98647 10.2036C7.18355 10.0062 7.45407 9.89996 7.73283 9.91043C8.10611 9.90871 8.45195 10.1063 8.64001 10.4287C8.82813 10.7511 8.82996 11.1493 8.64486 11.4734C8.4597 11.7976 8.11568 11.9983 7.7424 12H7.7424ZM9.5392 7.2224C9.4304 7.35042 9.31519 7.4736 9.19841 7.59521H9.19836C8.97617 7.80855 8.79997 8.06511 8.68055 8.34907C8.56112 8.63297 8.50101 8.93839 8.50399 9.24641V9.33121H6.99999C6.9602 8.96678 7.00113 8.59803 7.11999 8.25121C7.26879 7.81981 7.50092 7.42189 7.80316 7.08001C7.98462 6.88459 8.13467 6.66219 8.248 6.42079C8.4656 5.92642 8.18878 5.50079 7.648 5.44959C7.21497 5.40444 6.77868 5.49558 6.39997 5.71042C6.24956 5.32001 6.10076 4.93922 5.95997 4.55359C5.95747 4.50224 5.98169 4.45323 6.02399 4.42401C6.31705 4.29536 6.61925 4.18843 6.928 4.10401C7.52295 3.95646 8.14603 3.96635 8.736 4.13281C9.536 4.37442 9.96797 4.95202 10.024 5.78881C10.0632 6.31261 9.88829 6.8299 9.53924 7.22241L9.5392 7.2224Z" fill="white"/>
</g>
<defs>
<clipPath id="clip0_1_9456">
<rect width="16" height="16" fill="white"/>
</clipPath>
</defs>
</svg>
