<svg width="17" height="17" viewBox="0 0 17 17" fill="blue" xmlns="http://www.w3.org/2000/svg">
<g id="noun-user-5409198-FFFFFF 1" clip-path="url(#clip0_1_9468)">
<path id="Vector" d="M4.49433 4.18505C4.49428 3.39271 4.72919 2.61807 5.16935 1.95932C5.6095 1.30052 6.23516 0.787031 6.96724 0.483723C7.69926 0.180471 8.50475 0.101109 9.28193 0.255668C10.059 0.410226 10.7728 0.791734 11.3331 1.35204C11.8934 1.91229 12.275 2.62611 12.4296 3.40323C12.5842 4.18034 12.5048 4.98579 12.2016 5.71792C11.8984 6.44994 11.3849 7.0756 10.7261 7.51582C10.0673 7.95603 9.29277 8.19094 8.50042 8.19094C7.43836 8.18972 6.42019 7.76727 5.66908 7.01633C4.91807 6.26532 4.49562 5.24705 4.49435 4.18498L4.49433 4.18505ZM14.8439 11.8392C14.3126 11.2332 13.6595 10.7461 12.9272 10.4096C12.1949 10.0731 11.3999 9.89484 10.5941 9.88642H6.40669C5.60085 9.89483 4.80586 10.0731 4.07358 10.4096C3.34129 10.7461 2.68818 11.2331 2.15683 11.8392C1.00257 13.1296 0.346332 14.7894 0.305816 16.5202C0.30327 16.5992 0.332877 16.6757 0.387773 16.7324C0.442668 16.7891 0.518205 16.8211 0.597113 16.8211H16.4043C16.4832 16.8211 16.5587 16.7891 16.6136 16.7324C16.6685 16.6757 16.6981 16.5992 16.6956 16.5202C16.6552 14.7894 15.9989 13.1296 14.8446 11.8392H14.8439Z" fill="white"/>
</g>
<defs>
<clipPath id="clip0_1_9468">
<rect width="17" height="17" fill="white"/>
</clipPath>
</defs>
</svg>
