<svg width="20" height="20" viewBox="0 0 20 20" fill="none" xmlns="http://www.w3.org/2000/svg">
<path fill-rule="evenodd" clip-rule="evenodd" d="M11.4849 2.59744C10.6946 1.80085 9.30539 1.80085 8.51513 2.59744L6.96165 4.16334C6.67713 4.45014 6.29678 4.64688 5.8773 4.72423L3.58691 5.14662C2.42177 5.36149 1.72717 6.43937 2.10204 7.45082L2.83894 9.43911C2.97391 9.80326 2.97391 10.1967 2.83894 10.5609L2.10204 12.5492C1.72717 13.5606 2.42177 14.6385 3.58691 14.8534L5.8773 15.2758C6.29678 15.3531 6.67713 15.5499 6.96165 15.8367L8.51513 17.4026C9.30539 18.1991 10.6946 18.1991 11.4849 17.4026L13.0384 15.8367C13.3229 15.5499 13.7032 15.3531 14.1227 15.2758L16.4131 14.8534C17.5782 14.6385 18.2728 13.5606 17.898 12.5492L17.1611 10.5609C17.0261 10.1967 17.0261 9.80326 17.1611 9.43911L17.898 7.45082C18.2728 6.43937 17.5782 5.36149 16.4131 5.14662L14.1227 4.72423C13.7032 4.64688 13.3229 4.45014 13.0384 4.16334L11.4849 2.59744ZM10 11.7799C11.0972 11.7799 11.9866 10.983 11.9866 10C11.9866 9.01701 11.0972 8.22014 10 8.22014C8.90282 8.22014 8.01338 9.01701 8.01338 10C8.01338 10.983 8.90282 11.7799 10 11.7799Z" fill="white"/>
</svg>
