<svg width="19" height="17" viewBox="0 0 19 17" fill="none" xmlns="http://www.w3.org/2000/svg">
<path id="Vector" fill-rule="evenodd" clip-rule="evenodd" d="M10.0372 0.809314C9.72128 0.563562 9.27886 0.563562 8.96283 0.809314L1.08783 6.93432C0.706381 7.23099 0.637676 7.78074 0.934362 8.16218C1.23104 8.5437 1.78078 8.61241 2.16223 8.31572L2.50007 8.05294V15.5001C2.50007 15.9833 2.89184 16.3751 3.37507 16.3751H7.75007C8.2333 16.3751 8.62507 15.9833 8.62507 15.5001V12.0001H10.3751V15.5001C10.3751 15.9833 10.7668 16.3751 11.2501 16.3751H15.6251C16.1083 16.3751 16.5001 15.9833 16.5001 15.5001V8.05294L16.8378 8.31572C17.2194 8.6124 17.7691 8.54369 18.0657 8.16218C18.3625 7.78074 18.2938 7.23099 17.9122 6.93432L10.0372 0.809314Z" fill="white"/>
</svg>
